<svg xmlns="http://www.w3.org/2000/svg" viewBox="0 0 500 500"><g id="freepik--Window--inject-77"><g id="freepik--window--inject-77"><path d="M366.2,45.32V269.61a10.29,10.29,0,0,1-4.66,8.07L232.69,352a2.89,2.89,0,0,1-1.54.44,3.07,3.07,0,0,1-.6-.07,1.9,1.9,0,0,1-.4-.14l-.24-.14-.28-.18a2.85,2.85,0,0,1-.26-.23,3.77,3.77,0,0,1-.85-1.22,5.79,5.79,0,0,1-.49-2.36V125a10.3,10.3,0,0,1,4.66-8.07L361.54,42.63a3.38,3.38,0,0,1,3.13-.39,1.6,1.6,0,0,1,.4.23l0,0a1.47,1.47,0,0,1,.31.3,1.15,1.15,0,0,1,.14.17.87.87,0,0,1,.15.24,2.3,2.3,0,0,1,.27.6,1.3,1.3,0,0,1,.11.41.1.1,0,0,1,0,.09,2,2,0,0,1,.07.43A5.63,5.63,0,0,1,366.2,45.32Z" style="fill:#455a64"></path><path d="M364.67,42.24a3.38,3.38,0,0,0-3.13.39L232.69,116.9A10.3,10.3,0,0,0,228,125V140.2l-5.95-3.49V121.59a10.27,10.27,0,0,1,4.65-8L355.59,39.27A3.27,3.27,0,0,1,359,39C359.81,39.5,363.68,41.72,364.67,42.24Z" style="fill:#DB2777"></path><path d="M366.19,45.29c0-2.94-2.09-4.13-4.65-2.65L232.69,116.9A10.32,10.32,0,0,0,228,125V140.2L366.19,60.58Z" style="fill:#DB2777"></path><g style="opacity:0.4"><path d="M361.54,42.64,232.69,116.9a9.69,9.69,0,0,0-3.28,3.46l-5.91-3.43a9.32,9.32,0,0,1,3.24-3.4L355.59,39.27A3.27,3.27,0,0,1,359,39c.84.51,4.71,2.71,5.69,3.24A3.35,3.35,0,0,0,361.54,42.64Z" style="fill:#fff"></path></g><path d="M222.07,136.73V121.59a9.55,9.55,0,0,1,1.42-4.66l5.93,3.41A9.37,9.37,0,0,0,228,125V140.2Z" style="opacity:0.15"></path><path d="M338.14,62.63c-1.45.84-2.63,3.34-2.63,5.57s1.18,3.38,2.63,2.54,2.63-3.34,2.63-5.57S339.59,61.79,338.14,62.63Z" style="fill:#455a64"></path><path d="M347.61,57.15c-1.45.84-2.63,3.34-2.63,5.57s1.18,3.38,2.63,2.54,2.63-3.34,2.63-5.57S349.07,56.31,347.61,57.15Z" style="fill:#455a64"></path><path d="M357.09,51.67c-1.46.84-2.63,3.34-2.63,5.57s1.17,3.38,2.63,2.54,2.63-3.34,2.63-5.57S358.54,50.84,357.09,51.67Z" style="fill:#455a64"></path><path d="M229.74,352c-.17-.11-.37-.22-.58-.34-.43-.26-.92-.54-1.44-.81v0l-.78-.44-.06,0c-.43-.24-.84-.49-1.23-.7l-1-.58a6.19,6.19,0,0,0-.58-.32,2.73,2.73,0,0,1-.8-.65,3.49,3.49,0,0,1-.62-.94,5.75,5.75,0,0,1-.54-2.47v-208L228,140.2V348.12a6.75,6.75,0,0,0,.49,2.36,3.77,3.77,0,0,0,.85,1.22.83.83,0,0,0,.26.23A.38.38,0,0,0,229.74,352Z" style="fill:#37474f"></path><path d="M239.47,152.85a1.85,1.85,0,0,1,.24-.87l3.35-6.93a.49.49,0,0,1,.15-.2s.07-.06.09-.06a.19.19,0,0,1,.26,0,.46.46,0,0,1,.11.34v2.32a2.81,2.81,0,0,1-.07.72,2.71,2.71,0,0,1-.24.64l-1.76,3.66,1.76,1.62a.82.82,0,0,1,.24.36,2,2,0,0,1,.07.64v2.33a1.15,1.15,0,0,1-.11.47.73.73,0,0,1-.26.32l-.09,0a.17.17,0,0,1-.15,0l-3.35-3.07a.67.67,0,0,1-.24-.59Z" style="fill:#DB2777"></path><path d="M251.72,135.47a3.37,3.37,0,0,1,.26-.68,1.15,1.15,0,0,1,.49-.53l1.26-.73a.2.2,0,0,1,.26,0,.48.48,0,0,1,.11.34,1.38,1.38,0,0,1,0,.26l-5.75,24.47a2.9,2.9,0,0,1-.23.66,1.32,1.32,0,0,1-.51.56l-1.21.7a.2.2,0,0,1-.26,0,.44.44,0,0,1-.11-.34,1.38,1.38,0,0,1,0-.26Z" style="fill:#DB2777"></path><path d="M260.61,142.38a1.85,1.85,0,0,1-.24.87L257,150.18a.6.6,0,0,1-.15.2c-.05,0-.07.06-.09.06a.2.2,0,0,1-.26,0,.51.51,0,0,1-.11-.35v-2.32a2.81,2.81,0,0,1,.07-.72,2.71,2.71,0,0,1,.24-.64l1.76-3.66-1.76-1.62a.82.82,0,0,1-.24-.36,2,2,0,0,1-.07-.64v-2.33a1.15,1.15,0,0,1,.11-.47.73.73,0,0,1,.26-.32l.09,0a.21.21,0,0,1,.15,0l3.35,3.07a.67.67,0,0,1,.24.59Z" style="fill:#DB2777"></path><path d="M269.92,140.77a.25.25,0,0,1,.32,0,.57.57,0,0,1,.14.42v2.56a1.34,1.34,0,0,1-.14.58.86.86,0,0,1-.32.39l-1.58.92a.25.25,0,0,1-.33,0,.53.53,0,0,1-.13-.41v-2.57a1.31,1.31,0,0,1,.13-.57.85.85,0,0,1,.33-.4Z" style="fill:#DB2777"></path><path d="M275.2,137.72a.24.24,0,0,1,.32,0,.53.53,0,0,1,.14.42v2.56a1.21,1.21,0,0,1-.14.58.81.81,0,0,1-.32.39l-1.58.92a.24.24,0,0,1-.32,0,.54.54,0,0,1-.14-.42V139.6a1.33,1.33,0,0,1,.14-.57.84.84,0,0,1,.32-.4Z" style="fill:#DB2777"></path><path d="M280.48,134.67a.25.25,0,0,1,.33,0,.57.57,0,0,1,.13.42v2.56a1.33,1.33,0,0,1-.13.58.82.82,0,0,1-.33.39l-1.58.92a.24.24,0,0,1-.32,0,.54.54,0,0,1-.13-.42v-2.56a1.31,1.31,0,0,1,.13-.57.84.84,0,0,1,.32-.4Z" style="fill:#DB2777"></path><path d="M240.88,171.54l77.42-44.69c.91-.53,1.66-.16,1.66.83a3.57,3.57,0,0,1-1.66,2.75l-77.42,44.7c-.91.53-1.65.15-1.65-.84A3.56,3.56,0,0,1,240.88,171.54Z" style="fill:#DB2777"></path><path d="M265.72,200.23l77.42-44.7c.91-.53,1.66-.15,1.66.84a3.54,3.54,0,0,1-1.66,2.74l-77.42,44.7c-.91.53-1.65.15-1.65-.84A3.53,3.53,0,0,1,265.72,200.23Z" style="fill:#fff"></path><path d="M265.72,228.91l37.06-21.38c.91-.53,1.65-.15,1.65.84a3.56,3.56,0,0,1-1.65,2.75l-37.06,21.37c-.91.53-1.65.16-1.65-.83A3.56,3.56,0,0,1,265.72,228.91Z" style="fill:#e0e0e0"></path><path d="M324.72,123.14l30.84-17.87c.91-.53,1.65-.15,1.65.84a3.53,3.53,0,0,1-1.65,2.74l-30.84,17.88c-.92.53-1.66.15-1.66-.84A3.55,3.55,0,0,1,324.72,123.14Z" style="fill:#DB2777"></path><path d="M240.88,329.28l77.42-44.7c.91-.52,1.66-.15,1.66.84a3.57,3.57,0,0,1-1.66,2.75l-77.42,44.7c-.91.52-1.65.15-1.65-.84A3.56,3.56,0,0,1,240.88,329.28Z" style="fill:#DB2777"></path><path d="M324.72,280.88,355.56,263c.91-.53,1.65-.16,1.65.83a3.56,3.56,0,0,1-1.65,2.75l-30.84,17.87c-.92.53-1.66.16-1.66-.83A3.55,3.55,0,0,1,324.72,280.88Z" style="fill:#DB2777"></path><path d="M324.72,237.93l30.84-17.87c.91-.53,1.65-.15,1.65.84a3.56,3.56,0,0,1-1.65,2.75l-30.84,17.87c-.92.53-1.66.15-1.66-.84A3.55,3.55,0,0,1,324.72,237.93Z" style="fill:#DB2777"></path><path d="M324.72,252.27l30.84-17.87c.91-.53,1.65-.16,1.65.83a3.56,3.56,0,0,1-1.65,2.75l-30.84,17.88c-.92.52-1.66.15-1.66-.84A3.55,3.55,0,0,1,324.72,252.27Z" style="fill:#DB2777"></path><path d="M298.42,253.07l17.32-10c.92-.53,1.66-.15,1.66.84a3.55,3.55,0,0,1-1.66,2.75l-17.32,10c-.92.53-1.66.15-1.66-.84A3.55,3.55,0,0,1,298.42,253.07Z" style="fill:#DB2777"></path><path d="M240.88,185.92,286,159.83c.91-.53,1.65-.15,1.65.83a3.55,3.55,0,0,1-1.65,2.75L240.88,189.5c-.91.53-1.65.16-1.65-.83A3.56,3.56,0,0,1,240.88,185.92Z" style="fill:#DB2777"></path><path d="M240.88,185.92,286,159.83c.91-.53,1.65-.15,1.65.83a3.55,3.55,0,0,1-1.65,2.75L240.88,189.5c-.91.53-1.65.16-1.65-.83A3.56,3.56,0,0,1,240.88,185.92Z" style="fill:#fff;opacity:0.6000000000000001"></path><path d="M240.88,200.23l15.32-8.85c.92-.53,1.66-.16,1.66.83A3.55,3.55,0,0,1,256.2,195l-15.32,8.86c-.91.52-1.65.15-1.65-.84A3.56,3.56,0,0,1,240.88,200.23Z" style="fill:#DB2777"></path><path d="M240.88,200.23l15.32-8.85c.92-.53,1.66-.16,1.66.83A3.55,3.55,0,0,1,256.2,195l-15.32,8.86c-.91.52-1.65.15-1.65-.84A3.56,3.56,0,0,1,240.88,200.23Z" style="fill:#fff;opacity:0.6000000000000001"></path><path d="M240.88,214.57l15.32-8.85c.92-.53,1.66-.16,1.66.83a3.55,3.55,0,0,1-1.66,2.75l-15.32,8.86c-.91.53-1.65.15-1.65-.84A3.56,3.56,0,0,1,240.88,214.57Z" style="fill:#DB2777"></path><path d="M240.88,214.57l15.32-8.85c.92-.53,1.66-.16,1.66.83a3.55,3.55,0,0,1-1.66,2.75l-15.32,8.86c-.91.53-1.65.15-1.65-.84A3.56,3.56,0,0,1,240.88,214.57Z" style="fill:#fff;opacity:0.6000000000000001"></path><path d="M240.88,228.91l15.32-8.85c.92-.53,1.66-.16,1.66.83a3.55,3.55,0,0,1-1.66,2.75l-15.32,8.86c-.91.53-1.65.15-1.65-.84A3.56,3.56,0,0,1,240.88,228.91Z" style="fill:#DB2777"></path><path d="M240.88,228.91l15.32-8.86c.92-.53,1.66-.15,1.66.84a3.55,3.55,0,0,1-1.66,2.75l-15.32,8.85c-.91.53-1.65.16-1.65-.83A3.56,3.56,0,0,1,240.88,228.91Z" style="fill:#fff;opacity:0.6000000000000001"></path><path d="M265.72,214.57l45.16-26.09c.91-.53,1.65-.16,1.65.83a3.56,3.56,0,0,1-1.65,2.75l-45.16,26.09c-.91.53-1.65.16-1.65-.83A3.55,3.55,0,0,1,265.72,214.57Z" style="fill:#DB2777"></path><path d="M317.29,184.77l19.64-11.3c.91-.53,1.65-.15,1.65.84a3.56,3.56,0,0,1-1.65,2.75l-19.64,11.3c-.91.53-1.65.15-1.65-.84A3.56,3.56,0,0,1,317.29,184.77Z" style="fill:#DB2777"></path><path d="M240.88,243.25l15.32-8.85c.92-.53,1.66-.16,1.66.83A3.55,3.55,0,0,1,256.2,238l-15.32,8.86c-.91.53-1.65.15-1.65-.84A3.56,3.56,0,0,1,240.88,243.25Z" style="fill:#DB2777"></path><path d="M240.88,243.25l15.32-8.85c.92-.53,1.66-.16,1.66.83A3.55,3.55,0,0,1,256.2,238l-15.32,8.86c-.91.53-1.65.15-1.65-.84A3.56,3.56,0,0,1,240.88,243.25Z" style="fill:#fff;opacity:0.6000000000000001"></path><path d="M292.45,156.12l19.64-11.3c.91-.52,1.66-.15,1.66.84a3.57,3.57,0,0,1-1.66,2.75l-19.64,11.3c-.91.53-1.65.15-1.65-.84A3.56,3.56,0,0,1,292.45,156.12Z" style="fill:#DB2777"></path><path d="M292.45,156.12l19.64-11.3c.91-.52,1.66-.15,1.66.84a3.57,3.57,0,0,1-1.66,2.75l-19.64,11.3c-.91.53-1.65.15-1.65-.84A3.56,3.56,0,0,1,292.45,156.12Z" style="fill:#fff;opacity:0.6000000000000001"></path><path d="M284.35,232.47l45.16-26.09c.91-.53,1.65-.15,1.65.84a3.56,3.56,0,0,1-1.65,2.75l-45.16,26.09c-.91.52-1.65.15-1.65-.84A3.56,3.56,0,0,1,284.35,232.47Z" style="fill:#e0e0e0"></path><path d="M310.4,231.83l45.16-26.09c.91-.53,1.66-.15,1.66.84a3.54,3.54,0,0,1-1.66,2.74L310.4,235.41c-.91.53-1.65.16-1.65-.83A3.56,3.56,0,0,1,310.4,231.83Z" style="fill:#fff"></path><path d="M335.92,202.68l19.64-11.3c.91-.53,1.65-.16,1.65.83a3.56,3.56,0,0,1-1.65,2.75l-19.64,11.3c-.91.53-1.65.16-1.65-.83A3.55,3.55,0,0,1,335.92,202.68Z" style="fill:#e0e0e0"></path><path d="M335.92,259.48l19.64-11.3c.91-.53,1.65-.16,1.65.83a3.56,3.56,0,0,1-1.65,2.75l-19.64,11.3c-.91.53-1.65.15-1.65-.84A3.53,3.53,0,0,1,335.92,259.48Z" style="fill:#e0e0e0"></path><path d="M265.72,185.89l45.16-26.09c.91-.53,1.65-.15,1.65.84a3.56,3.56,0,0,1-1.65,2.75l-45.16,26.09c-.91.52-1.65.15-1.65-.84A3.56,3.56,0,0,1,265.72,185.89Z" style="fill:#DB2777"></path><path d="M265.72,185.89l45.16-26.09c.91-.53,1.65-.15,1.65.84a3.56,3.56,0,0,1-1.65,2.75l-45.16,26.09c-.91.52-1.65.15-1.65-.84A3.56,3.56,0,0,1,265.72,185.89Z" style="fill:#fff;opacity:0.6000000000000001"></path><path d="M317.29,156.1l19.64-11.3c.91-.53,1.65-.16,1.65.83a3.56,3.56,0,0,1-1.65,2.75l-19.64,11.3c-.91.53-1.65.16-1.65-.83A3.53,3.53,0,0,1,317.29,156.1Z" style="fill:#DB2777"></path><path d="M317.29,156.1l19.64-11.3c.91-.53,1.65-.16,1.65.83a3.56,3.56,0,0,1-1.65,2.75l-19.64,11.3c-.91.53-1.65.16-1.65-.83A3.53,3.53,0,0,1,317.29,156.1Z" style="fill:#fff;opacity:0.6000000000000001"></path><path d="M265.72,214.57l45.16-26.09c.91-.53,1.65-.16,1.65.83a3.56,3.56,0,0,1-1.65,2.75l-45.16,26.09c-.91.53-1.65.16-1.65-.83A3.55,3.55,0,0,1,265.72,214.57Z" style="fill:#fff;opacity:0.6000000000000001"></path><path d="M317.29,184.77l19.64-11.3c.91-.53,1.65-.15,1.65.84a3.56,3.56,0,0,1-1.65,2.75l-19.64,11.3c-.91.53-1.65.15-1.65-.84A3.56,3.56,0,0,1,317.29,184.77Z" style="fill:#fff;opacity:0.6000000000000001"></path></g></g><g id="freepik--Icons--inject-77"><g id="freepik--Java--inject-77"><path d="M419.89,64l-10.77,6.17-10.83-1a.76.76,0,0,0-.37.06c.87-.51,10.31-5.91,10.7-6.12a.68.68,0,0,1,.45-.09Z" style="fill:#DB2777"></path><path d="M419.89,64l-10.77,6.17-10.83-1a.76.76,0,0,0-.37.06c.87-.51,10.31-5.91,10.7-6.12a.68.68,0,0,1,.45-.09Z" style="fill:#fff;opacity:0.5"></path><polygon points="453.36 66.16 414.42 43.67 406.68 48.17 409.53 105.95 426.15 125.63 442.77 125.14 450.51 120.64 453.36 66.16" style="fill:#DB2777"></polygon><polygon points="453.36 66.16 445.63 70.66 406.68 48.17 414.42 43.67 453.36 66.16" style="fill:#fff;opacity:0.5"></polygon><polygon points="453.36 66.16 445.63 70.66 442.77 125.14 450.51 120.64 453.36 66.16" style="opacity:0.15"></polygon><path d="M406.68,48.17l1.08,21.88-9.46-.83a.8.8,0,0,0-.66,1.33l10.72,11.61L409.53,106l16.62,19.68,16.62-.49,2.86-54.48Z" style="fill:#DB2777"></path><polygon points="426.15 65.05 441.63 73.98 439.35 118.8 426.15 119.78 426.15 65.05" style="fill:#fff;opacity:0.5"></polygon><polygon points="437.95 76.26 436.32 112.97 426.15 113.55 415.99 101.23 415.47 90.86 419.15 92.98 419.45 99.17 426.15 107.56 432.85 106.9 433.99 79.61 414.65 68.44 414.36 62.64 437.95 76.26" style="fill:#fff"></polygon></g><g id="freepik--CSS--inject-77"><path d="M419.89,156.26l-10.77,6.17-10.83-1a.9.9,0,0,0-.37.05c.87-.51,10.31-5.91,10.7-6.12a.75.75,0,0,1,.45-.09Z" style="fill:#DB2777"></path><polygon points="453.36 158.42 414.42 135.93 406.68 140.43 409.53 198.21 426.15 217.89 442.77 217.4 450.51 212.9 453.36 158.42" style="fill:#DB2777"></polygon><polygon points="453.36 158.42 445.63 162.91 442.77 217.4 450.51 212.9 453.36 158.42" style="opacity:0.35000000000000003"></polygon><path d="M406.68,140.43l1.08,21.87-9.46-.82a.8.8,0,0,0-.66,1.33l10.72,11.61,1.17,23.79,16.62,19.68,16.62-.49,2.86-54.49Z" style="fill:#DB2777"></path><path d="M406.68,140.43l1.08,21.87-9.46-.82a.8.8,0,0,0-.66,1.33l10.72,11.61,1.17,23.79,16.62,19.68,16.62-.49,2.86-54.49Z" style="opacity:0.25"></path><polygon points="426.15 157.3 441.63 166.24 439.35 211.05 426.15 212.04 426.15 157.3" style="fill:#DB2777;opacity:0.7000000000000001"></polygon><polygon points="414.36 154.9 414.6 160.67 433.99 171.86 433.52 183.24 415.11 172.61 415.35 178.38 433.29 188.74 432.85 199.16 426.15 199.82 419.45 191.42 419.15 185.24 415.47 183.12 415.99 193.49 426.15 205.81 436.32 205.23 437.95 168.51 414.36 154.9" style="fill:#fff"></polygon></g><g id="freepik--HTML--inject-77"><polygon points="453.36 250.66 414.42 228.18 406.68 232.67 409.53 290.45 426.15 310.13 442.77 309.64 450.51 305.14 453.36 250.66" style="fill:#DB2777"></polygon><polygon points="453.36 250.66 445.63 255.16 406.68 232.67 414.42 228.18 453.36 250.66" style="opacity:0.25"></polygon><polygon points="453.36 250.66 445.63 255.16 442.77 309.64 450.51 305.14 453.36 250.66" style="opacity:0.55"></polygon><path d="M419.89,248.5l-10.77,6.17-10.83-.95a.76.76,0,0,0-.37.06c.87-.51,10.31-5.92,10.7-6.13a.83.83,0,0,1,.45-.09Z" style="fill:#DB2777"></path><path d="M419.89,248.5l-10.77,6.17-10.83-.95a.76.76,0,0,0-.37.06c.87-.51,10.31-5.92,10.7-6.13a.83.83,0,0,1,.45-.09Z" style="opacity:0.25"></path><path d="M406.68,232.67l1.08,21.88-9.46-.83a.8.8,0,0,0-.66,1.33l10.72,11.61,1.17,23.79,16.62,19.68,16.62-.49,2.86-54.48Z" style="fill:#DB2777"></path><path d="M406.68,232.67l1.08,21.88-9.46-.83a.8.8,0,0,0-.66,1.33l10.72,11.61,1.17,23.79,16.62,19.68,16.62-.49,2.86-54.48Z" style="opacity:0.4"></path><polygon points="426.15 249.55 441.63 258.48 439.35 303.3 426.15 304.28 426.15 249.55" style="fill:#DB2777;opacity:0.5"></polygon><polygon points="437.95 260.76 414.36 247.14 415.35 270.63 433.29 280.98 432.85 291.41 426.15 292.06 419.45 283.67 419.15 277.48 415.47 275.36 415.99 285.74 426.15 298.05 436.32 297.47 437.19 277.6 418.79 266.98 418.31 255.06 437.66 266.23 437.95 260.76" style="fill:#fff"></polygon></g></g><g id="freepik--Character--inject-77"><g id="freepik--character--inject-77"><path d="M250.31,367.18c-2.8,8.36-5.2,19.16-9,35.43-3.55,15.24-3.57,26,1.36,29.7s19.06,1.44,28-17.6c2.8-6,13.33-24.35,13.33-24.35s7.8-2.81,10.49-4.92c0,0,26,.76,38.64-1.83s26.08-18,20.9-19.54c-9.3-2.74-34.08-3.78-55.07-5.13Z" style="fill:#37474f"></path><path d="M320.75,380.35c-5.69,1.32-14.12-.44-18.87-1.82a12.52,12.52,0,0,0-.16-5,16.43,16.43,0,0,1-2.11,6.32c-.78.44-1.44.81-1.92,1.06-3.16,1.61-11.84,6.05-13.45,4.65a16.94,16.94,0,0,0-9.73-6.17c2.72,1.83,10.6,7.48,7.8,14l1.71-3s7.8-2.81,10.49-4.92c0,0,14.55.42,27.16-.44l15-10.37S329.47,374.21,320.75,380.35Z" style="fill:#263238"></path><path d="M306.17,398.09a16.42,16.42,0,0,1-6.76,4,5.88,5.88,0,0,1-2.54,0c-2.92-.61-7.6-.6-9.24,5.23-1.85,6.61-9.24,9.75-11.21,14.28-1,2.26-1.5,8.81-.54,12.84.8,3.3,7.19.85,9.56-3.18s7.45-9.34,10.8-12.4c5.45-3.07,11.5-7.57,14.08-9.38Z" style="fill:#f28f8f"></path><path d="M344.61,361.82c16.77,1.12,17.34,10,13.15,16.76-4.51,7.25-21,17-30,22.16-8.21,4.73-22.22,13.11-22.22,13.11s-7.09-5.54-6.17-11.77c9.28-6.47,21.78-24.89,37.25-27.45Z" style="fill:#263238"></path><path d="M278.41,436.47a3.83,3.83,0,0,1-2.75-.64c-.75-.53-2.41-5.2-1-10.86a24.15,24.15,0,0,1,6.2-11.14c1.83-1.94,2.49-4.17,3.15-7s2.72-6.3,4.15-6.69,3.6.72,3.6.72Z" style="fill:#263238"></path><path d="M300.52,416.47c-.35,1.8-1.83,2.26-3.42,2.89-2.17.86-4.23,3.1-6.19,5.6-1.33,1.7-2.43,3.4-3.64,5.18s-2.23,4.35-3.53,5.71c-1.91,2-5.77,1.62-6.83-1.21-.92-2.44-1.31-8.5,1.47-14.3,1.52-3.17,5.72-6.24,6.82-10.55.73-2.88,1.74-6.31,3.86-8.5,1.26-1.3,2.41-1,4-.54a51.32,51.32,0,0,0,6.36,1.33,9.66,9.66,0,0,1-1.55,5,4.17,4.17,0,0,0-.8,1.62,3.36,3.36,0,0,0,.11,1.22c.12.56.32,1.21.87,1.37a5.34,5.34,0,0,0,.69.05c.86.11,1.28,1.1,1.5,1.94a8,8,0,0,1,.35,2.79A3.58,3.58,0,0,1,300.52,416.47Z" style="fill:#DB2777"></path><path d="M300.52,416.47c-.35,1.8-1.83,2.26-3.42,2.89-2.17.86-4.23,3.1-6.19,5.6-1.33,1.7-2.43,3.4-3.64,5.18s-2.23,4.35-3.53,5.71c-1.91,2-5.77,1.62-6.83-1.21-.92-2.44-1.31-8.5,1.47-14.3,1.52-3.17,5.72-6.24,6.82-10.55.73-2.88,1.74-6.31,3.86-8.5,1.26-1.3,2.41-1,4-.54a51.32,51.32,0,0,0,6.36,1.33,9.66,9.66,0,0,1-1.55,5,4.17,4.17,0,0,0-.8,1.62,3.36,3.36,0,0,0,.11,1.22c.12.56.32,1.21.87,1.37a5.34,5.34,0,0,0,.69.05c.86.11,1.28,1.1,1.5,1.94a8,8,0,0,1,.35,2.79A3.58,3.58,0,0,1,300.52,416.47Z" style="opacity:0.4"></path><path d="M292.87,422.63a2.61,2.61,0,0,0,1.73-1.81c.45-1.22-.09-3.62-1-5.2a1,1,0,0,0-1.73-.15h0a1.06,1.06,0,0,0-.08,1.21A8,8,0,0,1,292.87,422.63Z" style="fill:#f5f5f5"></path><path d="M290,426.16a3,3,0,0,0,1.67-2.21,9.34,9.34,0,0,0-1.07-5.68,1,1,0,0,0-1.68-.15h0a1,1,0,0,0-.07,1.16A8,8,0,0,1,290,426.16Z" style="fill:#f5f5f5"></path><path d="M287.27,430.14a3.38,3.38,0,0,0,1.57-2.32,9,9,0,0,0-1.13-5.47,1,1,0,0,0-1.68-.15h0a1,1,0,0,0-.07,1.17A7.63,7.63,0,0,1,287.27,430.14Z" style="fill:#f5f5f5"></path><path d="M299.48,400.57c3-.75,7.34-1.81,9.14-4.19s5.55-4.68,10.61-1.35c3.2,2.11,7,2.8,10.8,3.05a35.52,35.52,0,0,1,5.06.24,18.65,18.65,0,0,1,5.6,2.59,9.25,9.25,0,0,1,2.79,2.41,5.72,5.72,0,0,1,.09,6.24,3.12,3.12,0,0,1-.79.87,3.29,3.29,0,0,1-1.32.55c-1.75.39-3.21-.16-4.86-.62-1.37-.38-2.77-.67-4.16-.92a70.11,70.11,0,0,0-9.58-1.12c-1.37-.05-4.22-.27-5.59-.17-5.72.39-13.81,3.61-13.81,3.61Z" style="fill:#ffa8a7"></path><path d="M240,428c.94,5.78,7.43,8.57,21.34,5.79s47-23.63,47-23.63-1.29-8-8.9-10.14c0,0-6.92,1.26-18.22,3.72a146,146,0,0,0-15.07,4.17c-7.64,10.25-15.58,6.11-18.44,9.71C243,423.61,240,428,240,428Z" style="fill:#37474f"></path><path d="M345,409.88a3.84,3.84,0,0,0,1.65-2.3c.21-.89-1.61-5.49-6.39-8.85a24.2,24.2,0,0,0-12-4.29c-2.65-.25-4.62-1.49-7-3.17s-6.19-2.94-7.53-2.29-2.23,2.91-2.23,2.91Z" style="fill:#263238"></path><path d="M315.21,409.4c1.45,1.12,2.87.49,4.48-.08,2.2-.78,5.23-.46,8.35.13,2.12.4,4.07,1,6.15,1.5s4.54,1.8,6.42,2c2.74.23,5.4-2.59,4.34-5.41-.92-2.44-4.62-7.26-10.54-9.79-3.22-1.38-8.4-.93-12.07-3.44-2.45-1.68-5.47-3.61-8.51-3.85-1.8-.15-2.46.85-3.36,2.22a51.83,51.83,0,0,1-3.9,5.2,9.74,9.74,0,0,0,4.48,2.76,4.4,4.4,0,0,1,1.67.68,3.59,3.59,0,0,1,.72,1c.28.49.55,1.12.24,1.6a5.55,5.55,0,0,1-.48.49c-.57.66-.23,1.67.15,2.45a8.13,8.13,0,0,0,1.58,2.33A3,3,0,0,0,315.21,409.4Z" style="fill:#DB2777"></path><path d="M315.21,409.4c1.45,1.12,2.87.49,4.48-.08,2.2-.78,5.23-.46,8.35.13,2.12.4,4.07,1,6.15,1.5s4.54,1.8,6.42,2c2.74.23,5.4-2.59,4.34-5.41-.92-2.44-4.62-7.26-10.54-9.79-3.22-1.38-8.4-.93-12.07-3.44-2.45-1.68-5.47-3.61-8.51-3.85-1.8-.15-2.46.85-3.36,2.22a51.83,51.83,0,0,1-3.9,5.2,9.74,9.74,0,0,0,4.48,2.76,4.4,4.4,0,0,1,1.67.68,3.59,3.59,0,0,1,.72,1c.28.49.55,1.12.24,1.6a5.55,5.55,0,0,1-.48.49c-.57.66-.23,1.67.15,2.45a8.13,8.13,0,0,0,1.58,2.33A3,3,0,0,0,315.21,409.4Z" style="opacity:0.4"></path><path d="M325,409a2.6,2.6,0,0,1-2.49-.22c-1.15-.62-2.32-2.78-2.68-4.57a1,1,0,0,1,1.21-1.25h0a1.05,1.05,0,0,1,.85.85A8,8,0,0,0,325,409Z" style="fill:#f5f5f5"></path><path d="M329.52,409.76a3,3,0,0,1-2.72-.57,9.35,9.35,0,0,1-2.94-5A1,1,0,0,1,325,403h0a1,1,0,0,1,.81.83A8.07,8.07,0,0,0,329.52,409.76Z" style="fill:#f5f5f5"></path><path d="M334.19,411a3.38,3.38,0,0,1-2.71-.71,9,9,0,0,1-2.75-4.86,1,1,0,0,1,1.16-1.22h0a1,1,0,0,1,.82.83A7.67,7.67,0,0,0,334.19,411Z" style="fill:#f5f5f5"></path><path d="M275.79,405s-9.34,1.83-16.27,6.49c0,0,7.12-8.34,18.12-9.83Z" style="fill:#263238"></path><path d="M310.77,333.78,299.13,300.9,296.06,302l1.84,36.32,2,5.4C305.11,341,309.36,339,310.77,333.78Z" style="fill:#ffa8a7"></path><path d="M283.39,292.26c7.21.08,13.79,2.7,16.52,8.35S311,331.93,311,331.93,304.14,340,294,339.35Z" style="fill:#DB2777"></path><path d="M283.39,292.26c7.21.08,13.79,2.7,16.52,8.35S311,331.93,311,331.93,304.14,340,294,339.35Z" style="opacity:0.1"></path><path d="M268.6,292.7c-10.11,1.87-16.85,4-18.76,5.89-4.3,8.81,1.29,38.34,1.29,38.34l1,14.05-1.78,16.2c10.93,9.24,44.38,4.7,50.34-8.24,0,0-1.67-42.12-1.67-49.59s-4.14-16.42-15.59-17.09Z" style="fill:#fafafa"></path><path d="M261.24,360.83c-2.93-4.49-2.81-15.91-2.81-15.91s5.12-29.8,3.94-36.9L248.86,321c.86,8.53,2.27,16,2.27,16l1,14.05-1.78,16.2c8.74,7.39,31.88,6,43.85-1.53C276.63,372.69,264.16,365.32,261.24,360.83Z" style="fill:#ebebeb"></path><path d="M263,269s1.52,11.21,2.33,13.09a5,5,0,0,0,2.71,2.54l.42-7.77Z" style="fill:#263238"></path><path d="M267.15,253.37a5.43,5.43,0,0,0-4.62,1.24c-2.08,1.83-1.46,8.1.49,14.34l4.39.84Z" style="fill:#263238"></path><path d="M268.73,269.89c-.92.46-2.06-1.33-3.07-2.56s-4.46-3.06-6.52.56.9,9,3.65,10.09c4.73,1.88,5.69-1.17,5.69-1.17l-1,17.84c4.39,9.56,21.91,6.15,15.93-.42l.32-4.53a51.5,51.5,0,0,0,7.31.55c3.61-.29,5.25-2.64,6.62-6.42,2.2-6.06,3.24-11,2.67-23.31-.61-13.47-16.13-14.77-24.91-10.12S268.73,269.89,268.73,269.89Z" style="fill:#ffa8a7"></path><path d="M268.42,246.12a43.08,43.08,0,0,1,9.37-2.07c6.88-1,13.88-1.8,20.3-4.47a4.3,4.3,0,0,1,2.48-.51c1.62.33,2.18,2.36,2.12,4a13.46,13.46,0,0,1-.92,4.47,2.59,2.59,0,0,1,3.64.33,4.5,4.5,0,0,1,.77,3.88,9.53,9.53,0,0,1-6,6.49,21.49,21.49,0,0,1-9.06,1.11,61.69,61.69,0,0,1-12.68-1.92,9,9,0,0,0-3.07-.45,2.78,2.78,0,0,0-2.45,1.66c-.57,1.65-1.9,13.08-4.26,13-.44,0-1.89-3-2.91-4.14-1.27-1.4-1.91-11.33-2-13.16a1,1,0,0,0-.16-.4c-1.38-2.28.7-5.78,2.69-6.82A21.52,21.52,0,0,1,268.42,246.12Z" style="fill:#263238"></path><path d="M264.43,254.12a3.24,3.24,0,0,1-4.61-4.56Z" style="fill:#263238"></path><path d="M283.72,289.7s-7.89-1.36-10.56-3a9.21,9.21,0,0,1-3.56-4.09,12.46,12.46,0,0,0,1.85,4.65c1.84,2.75,12.05,5.44,12.05,5.44Z" style="fill:#f28f8f"></path><path d="M284.52,269a1.6,1.6,0,1,1-1.47-1.78A1.63,1.63,0,0,1,284.52,269Z" style="fill:#263238"></path><path d="M283.28,262.84l-3.55,1.63a2.05,2.05,0,0,1,1-2.66A1.91,1.91,0,0,1,283.28,262.84Z" style="fill:#263238"></path><path d="M283.72,280.08l3.54,1.64a1.92,1.92,0,0,1-2.57,1A2,2,0,0,1,283.72,280.08Z" style="fill:#f28f8f"></path><path d="M298.64,265.36l-2.93-2.63a1.88,1.88,0,0,1,2.73-.21A2.07,2.07,0,0,1,298.64,265.36Z" style="fill:#263238"></path><path d="M297.37,269.52a1.6,1.6,0,1,1-1.47-1.78A1.64,1.64,0,0,1,297.37,269.52Z" style="fill:#263238"></path><polygon points="289.24 267.88 289.04 277.5 294.18 276.17 289.24 267.88" style="fill:#f28f8f"></polygon><path d="M238.16,365.91c-6.48-6.52-7.52-8.65-6.64-12.72,1.74-8,8.85-33.61,11.55-41.22,3.39-9.56,4.9-13.38,10.54-14.61,4.55,3.6,9,17.08,2.88,29.22l-7.38,26.5" style="fill:#ffa8a7"></path><path d="M258.45,295c-8.71,1-12.4,4.52-15.54,13.93S234.25,340,234.25,340s7.31,7.92,17.56,7.09l8.54-28.3S266.36,298.21,258.45,295Z" style="fill:#DB2777"></path><path d="M258.45,295c-8.71,1-12.4,4.52-15.54,13.93S234.25,340,234.25,340s7.31,7.92,17.56,7.09l8.54-28.3S266.36,298.21,258.45,295Z" style="opacity:0.1"></path><path d="M256.43,392.48v1a2.89,2.89,0,0,0,1.43,2.48l27.26,15.68a2.86,2.86,0,0,0,2.85,0l50-28.87a2.84,2.84,0,0,0,1.43-2.47v-.7l-52.85,30.52Z" style="fill:#ebebeb"></path><path d="M339.4,379.61,309.76,362.5a1.69,1.69,0,0,0-1.71,0l-51.43,29.69a.38.38,0,0,0,0,.66l29.93,17.28Z" style="fill:#fafafa"></path><path d="M326.22,362.27c-4.07-7.22-15.45-28.49-15.45-28.49l-10.86,10c4.43,8.38,16.46,25.24,16.46,25.24C321.9,372.63,328.56,366.43,326.22,362.27Z" style="fill:#ffa8a7"></path><polygon points="286.27 407.61 270.28 398.39 317.04 371.4 333.11 380.57 286.27 407.61" style="fill:#e0e0e0"></polygon><polygon points="278.42 381.96 278.71 382.13 286.55 386.65 300.49 378.61 300.77 378.44 292.64 373.75 278.42 381.96" style="fill:#e0e0e0"></polygon><polygon points="278.71 382.13 286.55 386.65 300.49 378.61 292.64 374.08 278.71 382.13" style="fill:#e6e6e6"></polygon><path d="M286.55,410.13V412a2.78,2.78,0,0,0,1.42-.38l50-28.87a2.84,2.84,0,0,0,1.43-2.47v-.7Z" style="fill:#ebebeb"></path><path d="M286.55,410.13V412a2.78,2.78,0,0,0,1.42-.38l50-28.87a2.84,2.84,0,0,0,1.43-2.47v-.7Z" style="fill:#e0e0e0"></path><path d="M287.35,410.55a3.37,3.37,0,0,0,2.92-.22l49.78-28.75a3.37,3.37,0,0,0,1.65-2.36l5.45-32.5a3.52,3.52,0,0,0,0-.56,3.37,3.37,0,0,0-1-2.4l-51.73,29.87a2.5,2.5,0,0,0-1.22,1.75Z" style="fill:#DB2777"></path><g style="opacity:0.7000000000000001"><path d="M287.35,410.55a3.37,3.37,0,0,0,2.92-.22l49.78-28.75a3.37,3.37,0,0,0,1.65-2.36l5.45-32.5a3.52,3.52,0,0,0,0-.56,3.37,3.37,0,0,0-1-2.4l-51.73,29.87a2.5,2.5,0,0,0-1.22,1.75Z" style="fill:#fff"></path></g><path d="M286.55,410.13l.34.2a3.88,3.88,0,0,0,.46.22l5.89-35.17a2.5,2.5,0,0,1,1.22-1.75l51.73-29.87a3.32,3.32,0,0,0-.69-.53l-51.84,29.93a2.48,2.48,0,0,0-1.21,1.75Z" style="fill:#fafafa"></path><path d="M315.39,380.55c.36-2.18,2.61-5.07,5-6.46s4.06-.75,3.69,1.43-2.61,5.06-5,6.45S315,382.73,315.39,380.55Z" style="fill:#DB2777"></path><path d="M249.11,353.08s3.74,6.21,8.06,12,9,11.89,12.5,12.92c3.29,1,7.15,2.13,8.27,3.16a86.23,86.23,0,0,1,7.5,8.7c1,1.71,3.51,5.19,0,6.3-3.21,1-5.83-.36-8.43-2.15a33.78,33.78,0,0,1-3.49-2.87,12.75,12.75,0,0,1-7.53-1.5c-2-1.12-5.3-3.08-5.3-3.08-2.74-1.88-16.35-14.48-22.53-20.68" style="fill:#ffa8a7"></path></g></g></svg>